<svg width="62" height="10" viewBox="0 0 62 10" fill="none" xmlns="http://www.w3.org/2000/svg">
<path d="M2.76953 7.58789H7.07031V9H0.572266V7.96875L4.79102 1.89258H0.578125V0.46875H6.97656V1.47656L2.76953 7.58789ZM10.8613 9.11719C9.93164 9.11719 9.17383 8.83203 8.58789 8.26172C8.00586 7.69141 7.71484 6.93164 7.71484 5.98242V5.81836C7.71484 5.18164 7.83789 4.61328 8.08398 4.11328C8.33008 3.60938 8.67773 3.22266 9.12695 2.95312C9.58008 2.67969 10.0957 2.54297 10.6738 2.54297C11.541 2.54297 12.2227 2.81641 12.7188 3.36328C13.2188 3.91016 13.4688 4.68555 13.4688 5.68945V6.38086H9.43164C9.48633 6.79492 9.65039 7.12695 9.92383 7.37695C10.2012 7.62695 10.5508 7.75195 10.9727 7.75195C11.625 7.75195 12.1348 7.51562 12.502 7.04297L13.334 7.97461C13.0801 8.33398 12.7363 8.61523 12.3027 8.81836C11.8691 9.01758 11.3887 9.11719 10.8613 9.11719ZM10.668 3.91406C10.332 3.91406 10.0586 4.02734 9.84766 4.25391C9.64062 4.48047 9.50781 4.80469 9.44922 5.22656H11.8047V5.0918C11.7969 4.7168 11.6953 4.42773 11.5 4.22461C11.3047 4.01758 11.0273 3.91406 10.668 3.91406ZM17.998 4.24805C17.7676 4.2168 17.5645 4.20117 17.3887 4.20117C16.748 4.20117 16.3281 4.41797 16.1289 4.85156V9H14.4355V2.66016H16.0352L16.082 3.41602C16.4219 2.83398 16.8926 2.54297 17.4941 2.54297C17.6816 2.54297 17.8574 2.56836 18.0215 2.61914L17.998 4.24805ZM18.3438 5.77148C18.3438 5.14258 18.4648 4.58203 18.707 4.08984C18.9492 3.59766 19.2969 3.2168 19.75 2.94727C20.207 2.67773 20.7363 2.54297 21.3379 2.54297C22.1934 2.54297 22.8906 2.80469 23.4297 3.32812C23.9727 3.85156 24.2754 4.5625 24.3379 5.46094L24.3496 5.89453C24.3496 6.86719 24.0781 7.64844 23.5352 8.23828C22.9922 8.82422 22.2637 9.11719 21.3496 9.11719C20.4355 9.11719 19.7051 8.82422 19.1582 8.23828C18.6152 7.65234 18.3438 6.85547 18.3438 5.84766V5.77148ZM20.0371 5.89453C20.0371 6.49609 20.1504 6.95703 20.377 7.27734C20.6035 7.59375 20.9277 7.75195 21.3496 7.75195C21.7598 7.75195 22.0801 7.5957 22.3105 7.2832C22.541 6.9668 22.6562 6.46289 22.6562 5.77148C22.6562 5.18164 22.541 4.72461 22.3105 4.40039C22.0801 4.07617 21.7559 3.91406 21.3379 3.91406C20.9238 3.91406 20.6035 4.07617 20.377 4.40039C20.1504 4.7207 20.0371 5.21875 20.0371 5.89453ZM29.9277 6.76172C29.9277 6.42969 29.8105 6.17578 29.5762 6C29.3418 5.82031 28.9199 5.63281 28.3105 5.4375C27.7012 5.23828 27.2188 5.04297 26.8633 4.85156C25.8945 4.32812 25.4102 3.62305 25.4102 2.73633C25.4102 2.27539 25.5391 1.86523 25.7969 1.50586C26.0586 1.14258 26.4316 0.859375 26.916 0.65625C27.4043 0.453125 27.9512 0.351562 28.5566 0.351562C29.166 0.351562 29.709 0.462891 30.1855 0.685547C30.6621 0.904297 31.0312 1.21484 31.293 1.61719C31.5586 2.01953 31.6914 2.47656 31.6914 2.98828H29.9336C29.9336 2.59766 29.8105 2.29492 29.5645 2.08008C29.3184 1.86133 28.9727 1.75195 28.5273 1.75195C28.0977 1.75195 27.7637 1.84375 27.5254 2.02734C27.2871 2.20703 27.168 2.44531 27.168 2.74219C27.168 3.01953 27.3066 3.25195 27.584 3.43945C27.8652 3.62695 28.2773 3.80273 28.8203 3.9668C29.8203 4.26758 30.5488 4.64062 31.0059 5.08594C31.4629 5.53125 31.6914 6.08594 31.6914 6.75C31.6914 7.48828 31.4121 8.06836 30.8535 8.49023C30.2949 8.9082 29.543 9.11719 28.5977 9.11719C27.9414 9.11719 27.3438 8.99805 26.8047 8.75977C26.2656 8.51758 25.8535 8.1875 25.5684 7.76953C25.2871 7.35156 25.1465 6.86719 25.1465 6.31641H26.9102C26.9102 7.25781 27.4727 7.72852 28.5977 7.72852C29.0156 7.72852 29.3418 7.64453 29.5762 7.47656C29.8105 7.30469 29.9277 7.06641 29.9277 6.76172ZM35.4121 7.75195C35.7246 7.75195 35.9785 7.66602 36.1738 7.49414C36.3691 7.32227 36.4707 7.09375 36.4785 6.80859H38.0664C38.0625 7.23828 37.9453 7.63281 37.7148 7.99219C37.4844 8.34766 37.168 8.625 36.7656 8.82422C36.3672 9.01953 35.9258 9.11719 35.4414 9.11719C34.5352 9.11719 33.8203 8.83008 33.2969 8.25586C32.7734 7.67773 32.5117 6.88086 32.5117 5.86523V5.75391C32.5117 4.77734 32.7715 3.99805 33.291 3.41602C33.8105 2.83398 34.5234 2.54297 35.4297 2.54297C36.2227 2.54297 36.8574 2.76953 37.334 3.22266C37.8145 3.67188 38.0586 4.27148 38.0664 5.02148H36.4785C36.4707 4.69336 36.3691 4.42773 36.1738 4.22461C35.9785 4.01758 35.7207 3.91406 35.4004 3.91406C35.0059 3.91406 34.707 4.05859 34.5039 4.34766C34.3047 4.63281 34.2051 5.09766 34.2051 5.74219V5.91797C34.2051 6.57031 34.3047 7.03906 34.5039 7.32422C34.7031 7.60938 35.0059 7.75195 35.4121 7.75195ZM40.6855 3.35156C41.1348 2.8125 41.6992 2.54297 42.3789 2.54297C43.7539 2.54297 44.4512 3.3418 44.4707 4.93945V9H42.7773V4.98633C42.7773 4.62305 42.6992 4.35547 42.543 4.18359C42.3867 4.00781 42.127 3.91992 41.7637 3.91992C41.2676 3.91992 40.9082 4.11133 40.6855 4.49414V9H38.9922V0H40.6855V3.35156ZM45.4844 5.77148C45.4844 5.14258 45.6055 4.58203 45.8477 4.08984C46.0898 3.59766 46.4375 3.2168 46.8906 2.94727C47.3477 2.67773 47.877 2.54297 48.4785 2.54297C49.334 2.54297 50.0312 2.80469 50.5703 3.32812C51.1133 3.85156 51.416 4.5625 51.4785 5.46094L51.4902 5.89453C51.4902 6.86719 51.2188 7.64844 50.6758 8.23828C50.1328 8.82422 49.4043 9.11719 48.4902 9.11719C47.5762 9.11719 46.8457 8.82422 46.2988 8.23828C45.7559 7.65234 45.4844 6.85547 45.4844 5.84766V5.77148ZM47.1777 5.89453C47.1777 6.49609 47.291 6.95703 47.5176 7.27734C47.7441 7.59375 48.0684 7.75195 48.4902 7.75195C48.9004 7.75195 49.2207 7.5957 49.4512 7.2832C49.6816 6.9668 49.7969 6.46289 49.7969 5.77148C49.7969 5.18164 49.6816 4.72461 49.4512 4.40039C49.2207 4.07617 48.8965 3.91406 48.4785 3.91406C48.0645 3.91406 47.7441 4.07617 47.5176 4.40039C47.291 4.7207 47.1777 5.21875 47.1777 5.89453ZM52.2695 5.77148C52.2695 5.14258 52.3906 4.58203 52.6328 4.08984C52.875 3.59766 53.2227 3.2168 53.6758 2.94727C54.1328 2.67773 54.6621 2.54297 55.2637 2.54297C56.1191 2.54297 56.8164 2.80469 57.3555 3.32812C57.8984 3.85156 58.2012 4.5625 58.2637 5.46094L58.2754 5.89453C58.2754 6.86719 58.0039 7.64844 57.4609 8.23828C56.918 8.82422 56.1895 9.11719 55.2754 9.11719C54.3613 9.11719 53.6309 8.82422 53.084 8.23828C52.541 7.65234 52.2695 6.85547 52.2695 5.84766V5.77148ZM53.9629 5.89453C53.9629 6.49609 54.0762 6.95703 54.3027 7.27734C54.5293 7.59375 54.8535 7.75195 55.2754 7.75195C55.6855 7.75195 56.0059 7.5957 56.2363 7.2832C56.4668 6.9668 56.582 6.46289 56.582 5.77148C56.582 5.18164 56.4668 4.72461 56.2363 4.40039C56.0059 4.07617 55.6816 3.91406 55.2637 3.91406C54.8496 3.91406 54.5293 4.07617 54.3027 4.40039C54.0762 4.7207 53.9629 5.21875 53.9629 5.89453ZM61.1055 9H59.4062V0H61.1055V9Z" fill="#010101"/>
</svg>
