<svg width="144" height="156" viewBox="0 0 144 156" fill="none" xmlns="http://www.w3.org/2000/svg">
<path d="M5.9756 66.0021C-2.27063 51.7174 -1.70847 34.7633 5.9756 21.4316C13.6634 34.7633 14.2255 51.7174 5.9756 66.0021ZM5.9756 66.0021C-1.70847 79.3338 -2.27063 96.2879 5.9756 110.573C14.2255 96.2879 13.6634 79.3338 5.9756 66.0021ZM83.1811 -23.1426C75.4971 -9.81089 74.9349 7.14317 83.1811 21.4279C91.4274 7.14317 90.8652 -9.81089 83.1811 -23.1426ZM83.1811 21.4316C75.4971 34.7633 74.9349 51.7174 83.1811 66.0021C91.4274 51.7174 90.8652 34.7633 83.1811 21.4316ZM83.1811 66.0021C75.4971 79.3338 74.9349 96.2879 83.1811 110.573C91.4274 96.2879 90.8652 79.3338 83.1811 66.0021ZM83.1811 110.573C75.4971 123.904 74.9349 140.858 83.1811 155.143C91.4274 140.858 90.8652 123.904 83.1811 110.573ZM160.383 21.4316C152.699 34.7633 152.137 51.7174 160.383 66.0021C168.629 51.7174 168.067 34.7633 160.383 21.4316ZM160.383 66.0021C152.699 79.3338 152.137 96.2879 160.383 110.573C168.629 96.2879 168.067 79.3338 160.383 66.0021ZM44.5784 -0.85733C52.8283 13.4311 67.7907 21.4168 83.1811 21.4279C75.4747 8.1074 61.0746 -0.85733 44.5784 -0.85733ZM44.5784 -0.85733C61.0746 -0.85733 75.4747 -9.82206 83.1811 -23.1426C67.7907 -23.1314 52.8283 -15.1421 44.5784 -0.85733ZM44.5784 -0.85733C36.3321 13.4311 36.8943 30.3852 44.5784 43.7169C52.2662 30.3852 52.8283 13.4311 44.5784 -0.85733ZM5.97932 21.4279C21.3698 21.4168 36.3321 13.4274 44.5784 -0.85733C28.0822 -0.85733 13.682 8.1074 5.97932 21.4279ZM121.78 -0.85733C130.03 13.4311 144.992 21.4168 160.383 21.4279C152.677 8.1074 138.276 -0.85733 121.78 -0.85733ZM121.78 -0.85733C113.534 13.4311 114.096 30.3852 121.78 43.7169C129.468 30.3852 130.03 13.4311 121.78 -0.85733ZM83.1811 21.4279C98.5716 21.4168 113.534 13.4274 121.78 -0.85733C105.284 -0.85733 90.8838 8.1074 83.1811 21.4279ZM83.1811 -23.1426C90.8838 -9.82206 105.288 -0.85733 121.78 -0.85733C113.534 -15.1421 98.5716 -23.1314 83.1811 -23.1426ZM44.5784 43.7132C52.8283 58.0016 67.7907 65.9872 83.1811 65.9984C75.4747 52.6779 61.0746 43.7132 44.5784 43.7132ZM44.5784 43.7132C61.0746 43.7132 75.4747 34.7484 83.1811 21.4279C67.7907 21.4391 52.8283 29.4284 44.5784 43.7132ZM44.5784 43.7132C36.3321 58.0016 36.8943 74.9557 44.5784 88.2874C52.2662 74.9557 52.8283 58.0016 44.5784 43.7132ZM5.97932 66.0021C21.3698 65.991 36.3321 58.0016 44.5784 43.7169C28.0822 43.7132 13.682 52.6779 5.97932 66.0021ZM5.97932 21.4279C13.682 34.7484 28.0859 43.7132 44.5784 43.7132C36.3321 29.4284 21.3661 21.4391 5.97932 21.4279ZM121.78 43.7132C130.03 58.0016 144.992 65.9872 160.383 65.9984C152.677 52.6779 138.276 43.7132 121.78 43.7132ZM121.78 43.7132C138.276 43.7132 152.677 34.7484 160.383 21.4279C144.992 21.4391 130.03 29.4284 121.78 43.7132ZM121.78 43.7132C113.534 58.0016 114.096 74.9557 121.78 88.2874C129.468 74.9557 130.03 58.0016 121.78 43.7132ZM83.1811 66.0021C98.5716 65.991 113.534 58.0016 121.78 43.7169C105.284 43.7132 90.8838 52.6779 83.1811 66.0021ZM83.1811 21.4279C90.8838 34.7484 105.288 43.7132 121.78 43.7132C113.534 29.4284 98.5716 21.4391 83.1811 21.4279ZM44.5784 88.2874C52.8283 102.576 67.7907 110.561 83.1811 110.573C75.4747 97.2521 61.0746 88.2874 44.5784 88.2874ZM44.5784 88.2874C61.0746 88.2874 75.4747 79.3227 83.1811 66.0021C67.7907 66.0133 52.8283 73.9989 44.5784 88.2874ZM44.5784 88.2874C36.3321 102.576 36.8943 119.53 44.5784 132.862C52.2662 119.526 52.8283 102.572 44.5784 88.2874ZM5.97932 110.573C21.3698 110.561 36.3321 102.572 44.5784 88.2874C28.0822 88.2874 13.682 97.2521 5.97932 110.573ZM5.97932 66.0021C13.682 79.3227 28.0859 88.2874 44.5784 88.2874C36.3321 73.9989 21.3661 66.0133 5.97932 66.0021ZM121.78 88.2874C130.03 102.576 144.992 110.561 160.383 110.573C152.677 97.2521 138.276 88.2874 121.78 88.2874ZM121.78 88.2874C138.276 88.2874 152.677 79.3227 160.383 66.0021C144.992 66.0133 130.03 73.9989 121.78 88.2874ZM121.78 88.2874C113.534 102.576 114.096 119.53 121.78 132.862C129.468 119.526 130.03 102.572 121.78 88.2874ZM83.1811 110.573C98.5716 110.561 113.534 102.572 121.78 88.2874C105.284 88.2874 90.8838 97.2521 83.1811 110.573ZM83.1811 66.0021C90.8838 79.3227 105.288 88.2874 121.78 88.2874C113.534 73.9989 98.5716 66.0133 83.1811 66.0021ZM44.5784 132.858C52.8283 147.146 67.7907 155.132 83.1811 155.143C75.4747 141.823 61.0746 132.858 44.5784 132.858ZM44.5784 132.858C61.0746 132.858 75.4747 123.893 83.1811 110.573C67.7907 110.584 52.8283 118.573 44.5784 132.858ZM5.97932 110.573C13.682 123.893 28.0859 132.858 44.5784 132.858C36.3321 118.573 21.3661 110.584 5.97932 110.573ZM121.78 132.858C138.276 132.858 152.677 123.893 160.383 110.573C144.992 110.584 130.03 118.573 121.78 132.858ZM83.1811 155.143C98.5716 155.132 113.534 147.143 121.78 132.858C105.284 132.858 90.8838 141.823 83.1811 155.143ZM83.1811 110.573C90.8838 123.893 105.288 132.858 121.78 132.858C113.534 118.573 98.5716 110.584 83.1811 110.573Z" fill="url(#paint0_linear)"/>
<defs>
<linearGradient id="paint0_linear" x1="5.97802" y1="21.4286" x2="160.382" y2="110.574" gradientUnits="userSpaceOnUse">
<stop stop-color="#0864F6"/>
<stop offset="1" stop-color="#03DAC3"/>
</linearGradient>
</defs>
</svg>
